<?xml version="1.0" encoding="utf-8"?>
<svg width="172.5px" height="32px" viewBox="0 0 172.5 32" fill="none" xmlns="http://www.w3.org/2000/svg" xmlns:bx="https://boxy-svg.com">
  <path d="M17.333 5.33301H20V10.667H22.667V16H25.333V24H22.667V26.667H20V29.333H12V26.667H9.33301V24H6.66699V16H9.33301V10.667H12V5.33301H14.667V2.66699H17.333V5.33301Z" fill="#8232FF"/>
  <path d="M51.7354 28H48.1421V3.94287H59.8887C62.1875 3.94287 63.9385 4.56592 65.1416 5.81201C66.3447 7.05811 66.9463 8.80908 66.9463 11.0649C66.9463 12.4829 66.6294 13.6968 65.9956 14.7065C65.3618 15.7163 64.5024 16.4199 63.4175 16.8174V17.043H64.6421C66.2212 17.043 67.0107 17.9023 67.0107 19.6211V28H63.3853V18.9282H51.7354V28ZM51.7354 7.08496V15.915H59.083C60.3398 15.915 61.3228 15.6089 62.0317 14.9966C62.7515 14.3735 63.1113 13.5356 63.1113 12.4829V10.4849C63.1113 9.37842 62.7568 8.53516 62.0479 7.95508C61.3496 7.375 60.3613 7.08496 59.083 7.08496H51.7354ZM70.7187 25.9214C69.2256 24.2993 68.479 22.0972 68.479 19.3149C68.479 16.5327 69.2363 14.3359 70.751 12.7246C72.2656 11.1133 74.312 10.3076 76.8901 10.3076C79.393 10.3076 81.4179 11.1133 82.9648 12.7246C84.5224 14.3145 85.3013 16.5112 85.3013 19.3149C85.3013 22.0757 84.5547 24.2671 83.0615 25.8892C81.5683 27.5112 79.5112 28.3223 76.8901 28.3223C74.2798 28.3223 72.2226 27.522 70.7187 25.9214ZM71.9433 18.042V20.7329C71.9433 22.2153 72.3999 23.3809 73.313 24.2295C74.2261 25.0674 75.4184 25.4863 76.8901 25.4863C78.3511 25.4863 79.5327 25.062 80.435 24.2134C81.3481 23.3647 81.8047 22.2046 81.8047 20.7329V18.042C81.8047 16.5918 81.3481 15.4209 80.435 14.5293C79.522 13.627 78.3403 13.1758 76.8901 13.1758C75.4184 13.1758 74.2261 13.6216 73.313 14.5132C72.3999 15.4048 71.9433 16.5811 71.9433 18.042ZM98.081 13.208L89.0737 25.1963H98.1777V28H84.9809V25.4541L93.956 13.4819H84.9487V10.646H98.081V13.208ZM97.9057 19.2827C97.9057 16.479 98.6415 14.2822 100.113 12.6924C101.585 11.1025 103.588 10.3076 106.123 10.3076C108.519 10.3076 110.42 11.0112 111.828 12.4185C113.256 13.8472 113.971 15.7754 113.971 18.2031C113.971 18.7725 113.928 19.3955 113.842 20.0723H101.402V21.0391C101.402 22.4141 101.843 23.5259 102.724 24.3745C103.604 25.2124 104.759 25.6313 106.188 25.6313C107.316 25.6313 108.277 25.3682 109.072 24.8418C109.878 24.3154 110.415 23.6064 110.684 22.7148H114.035C113.691 24.4121 112.8 25.771 111.36 26.7915C109.932 27.812 108.197 28.3223 106.156 28.3223C103.599 28.3223 101.585 27.5112 100.113 25.8892C98.6415 24.2671 97.9057 22.0649 97.9057 19.2827ZM101.402 17.2363V17.6392H110.539V17.0752C110.539 15.8613 110.13 14.8838 109.314 14.1426C108.498 13.3906 107.423 13.0146 106.091 13.0146C104.706 13.0146 103.578 13.4067 102.707 14.1909C101.837 14.9644 101.402 15.9795 101.402 17.2363ZM119.499 28H116.1V10.646H119.064L119.532 13.8687H119.757C120.294 12.7515 121.073 11.8813 122.094 11.2583C123.114 10.6245 124.274 10.3076 125.574 10.3076C127.476 10.3076 128.947 10.9414 129.989 12.209C131.042 13.4766 131.568 15.2114 131.568 17.4136V28H128.136V17.7358C128.136 14.771 126.852 13.2886 124.285 13.2886C122.846 13.2886 121.685 13.8042 120.805 14.8354C119.934 15.8667 119.499 17.2202 119.499 18.896V28ZM138.048 7.81006H134.68V3.71729H138.048V7.81006ZM138.048 28H134.68V10.646H138.048V28ZM149.216 13.4819H145.623V25.2285H149.216V28H145.123C143.211 28 142.255 27.0654 142.255 25.1963V13.4819H139.129V10.646H142.255V5.00635H145.623V10.646H149.216V13.4819ZM149.669 19.2827C149.669 16.479 150.405 14.2822 151.877 12.6924C153.348 11.1025 155.352 10.3076 157.887 10.3076C160.283 10.3076 162.184 11.0112 163.591 12.4185C165.02 13.8472 165.734 15.7754 165.734 18.2031C165.734 18.7725 165.691 19.3955 165.605 20.0723H153.166V21.0391C153.166 22.4141 153.606 23.5259 154.487 24.3745C155.368 25.2124 156.523 25.6313 157.952 25.6313C159.079 25.6313 160.041 25.3682 160.836 24.8418C161.641 24.3154 162.179 23.6064 162.447 22.7148H165.799C165.455 24.4121 164.563 25.771 163.124 26.7915C161.695 27.812 159.96 28.3223 157.919 28.3223C155.363 28.3223 153.348 27.5112 151.877 25.8892C150.405 24.2671 149.669 22.0649 149.669 19.2827ZM153.166 17.2363V17.6392H162.302V17.0752C162.302 15.8613 161.894 14.8838 161.077 14.1426C160.261 13.3906 159.187 13.0146 157.855 13.0146C156.469 13.0146 155.341 13.4067 154.471 14.1909C153.601 14.9644 153.166 15.9795 153.166 17.2363Z" fill="#201F24"/>
  <defs>
    <bx:grid x="0" y="0" width="211.778" height="69.404"/>
  </defs>
</svg>